# xmcd
#
# Track frame offsets:
#  150
#  13336
#  26876
#  43174
#  57555
#  69489
#  86528
#  96214
#  111075
#  121679
#  134951
#  153985
#  167541
#  180851
#  196309
#  209570
#  224399
#
# Disc length: 3230 seconds
#
# Revision: 1
# Processed by: cddbd v1.5.2PL0 Copyright (c) Steve Scherf et al.
# Submitted via: AltoMP3_Maker 3.0
#
DISCID=f80c9c11
DTITLE=Various Artist - Superstars of Country - Vol 2 Disc 1
DYEAR=2005
DGENRE=Country
TTITLE0=I Will Always Love You
TTITLE1=There Goes My Everything
TTITLE2=Blanket on the Ground
TTITLE3=If I Said You Had a Beautiful Body Would You Hold it Against Me
TTITLE4=Little Green Apples
TTITLE5=Convoy
TTITLE6=Theme from 'Dukes of Hazard' (Good Ol' Boys)
TTITLE7=The Streak
TTITLE8=When You're Hot, Your Hot
TTITLE9=Talking in Your Sleep
TTITLE10=She Believes in Me
TTITLE11=Baby Don't Get Hooked on Me
TTITLE12=Behind Closed Doors
TTITLE13=(Hey, Don't You Play) Another Somebody Done Somebody Wrong Song
TTITLE14=D.I.V.O.R.C.E
TTITLE15=He Stopped Loving Her Today
TTITLE16=Honey
EXTD=
EXTT0=
EXTT1=
EXTT2=
EXTT3=
EXTT4=
EXTT5=
EXTT6=
EXTT7=
EXTT8=
EXTT9=
EXTT10=
EXTT11=
EXTT12=
EXTT13=
EXTT14=
EXTT15=
EXTT16=
PLAYORDER=
